# xmcd CD database file generated by Grip 3.2.0
# 
# Track frame offsets:
#       150
#       36395
#       72020
#       92065
#       110334
#       144540
#       175098
#       193967
#       216650
#       240434
#       256159
# 
# Disc length: 3573 seconds
# 
# Revision: 3
# Processed by: cddbd v1.5.2PL0 Copyright (c) Steve Scherf et al.
# Submitted via: Grip 3.2.0
# 
DISCID=a00df30b
DTITLE=The BossHoss - Stallion Battalion (Live from Cologne) - CD2
DYEAR=2008
DGENRE=Other
TTITLE0=Hey Ya
TTITLE1=Drop It Like It's Hot
TTITLE2=Yeehaw
TTITLE3=Ca Plane Pour Moi
TTITLE4=Shake and Shout
TTITLE5=Mary Marry Me - Goodbye Mary
TTITLE6=Sabotage
TTITLE7=Gay Bar
TTITLE8=Early Morning Rain (Acoustic)
TTITLE9=Ca Plane Pour Moi (feat. Plastic Bertrand)
TTITLE10=Flaming Star
EXTD=
EXTT0=
EXTT1=
EXTT2=
EXTT3=
EXTT4=
EXTT5=
EXTT6=
EXTT7=
EXTT8=
EXTT9=
EXTT10=
PLAYORDER=
